<svg xmlns="http://www.w3.org/2000/svg" xmlns:xlink="http://www.w3.org/1999/xlink" width="500" zoomAndPan="magnify" viewBox="0 0 375 374.999991" height="500" preserveAspectRatio="xMidYMid meet" version="1.0"><defs><clipPath id="04668891a3"><path d="M 37.5 70 L 337 70 L 337 305 L 37.5 305 Z M 37.5 70 " clip-rule="nonzero"/></clipPath></defs><g clip-path="url(#04668891a3)"><path fill="#8c52ff" d="M 181.398438 269.636719 Z M 120.390625 304.15625 L 133.011719 260.796875 L 141.847656 249.011719 L 145.214844 250.695312 L 141.007812 264.585938 L 143.53125 265.851562 L 153.628906 254.90625 L 156.574219 256.589844 L 151.105469 271.742188 L 120.390625 303.734375 Z M 163.304688 278.058594 L 180.976562 269.636719 C 186.867188 273.007812 194.023438 275.109375 201.175781 275.109375 C 211.273438 275.109375 220.53125 271.324219 227.683594 265.429688 C 239.464844 275.53125 254.609375 281.847656 271.019531 281.847656 C 307.207031 281.847656 336.660156 252.378906 336.660156 216.179688 C 336.660156 180.398438 308.046875 151.351562 272.703125 150.511719 C 273.542969 145.878906 274.386719 141.25 274.386719 136.617188 C 274.386719 100.417969 244.933594 70.949219 208.75 70.949219 C 177.613281 70.949219 151.523438 92.417969 144.792969 121.464844 C 137.640625 115.148438 127.960938 110.941406 117.445312 110.941406 C 94.722656 110.941406 76.210938 129.460938 76.210938 152.195312 C 76.210938 154.296875 76.210938 155.980469 76.628906 158.085938 C 53.488281 164.824219 36.660156 185.871094 36.660156 211.125 C 36.660156 241.433594 61.484375 266.269531 91.777344 266.269531 L 126.28125 266.269531 L 119.96875 304.15625 L 154.890625 274.691406 L 157.835938 266.269531 L 158.679688 266.269531 Z M 149.421875 202.707031 C 161.625 174.082031 177.613281 148.828125 212.957031 141.671875 C 223.054688 174.503906 212.535156 202.285156 191.078125 227.542969 C 194.023438 233.4375 196.546875 239.75 195.703125 245.644531 C 194.441406 253.640625 188.550781 257.429688 182.660156 262.484375 L 177.191406 267.113281 L 163.304688 278.480469 L 163.304688 250.695312 L 156.574219 254.90625 L 143.953125 247.328125 L 143.953125 238.910156 L 119.125 253.640625 L 123.753906 224.175781 C 125.015625 216.179688 125.4375 211.96875 133.011719 207.339844 C 138.480469 203.96875 144.371094 203.550781 150.261719 203.128906 Z M 149.421875 202.707031 " fill-opacity="1" fill-rule="evenodd"/></g><path fill="#d9d9d9" d="M 209.589844 148.828125 L 204.960938 156.402344 C 210.429688 174.925781 204.121094 196.394531 189.8125 219.964844 C 207.066406 198.5 215.902344 175.765625 209.167969 148.40625 Z M 209.589844 148.828125 " fill-opacity="1" fill-rule="evenodd"/></svg>