<svg xmlns="http://www.w3.org/2000/svg" xmlns:xlink="http://www.w3.org/1999/xlink" width="500" zoomAndPan="magnify" viewBox="0 0 375 374.999991" height="500" preserveAspectRatio="xMidYMid meet" version="1.0"><defs><g/><clipPath id="19f3be2d22"><path d="M 120 99 L 255 99 L 255 205 L 120 205 Z M 120 99 " clip-rule="nonzero"/></clipPath></defs><g clip-path="url(#19f3be2d22)"><path fill="#8c52ff" d="M 184.753906 189.007812 Z M 157.300781 204.503906 L 162.980469 185.039062 L 166.957031 179.746094 L 168.46875 180.503906 L 166.578125 186.738281 L 167.714844 187.304688 L 172.257812 182.390625 L 173.582031 183.148438 L 171.121094 189.953125 L 157.300781 204.316406 Z M 176.613281 192.789062 L 184.5625 189.007812 C 187.214844 190.519531 190.433594 191.464844 193.652344 191.464844 C 198.195312 191.464844 202.363281 189.761719 205.582031 187.117188 C 210.882812 191.652344 217.699219 194.488281 225.082031 194.488281 C 241.367188 194.488281 254.621094 181.257812 254.621094 165.003906 C 254.621094 148.941406 241.746094 135.898438 225.839844 135.519531 C 226.21875 133.441406 226.597656 131.363281 226.597656 129.285156 C 226.597656 113.03125 213.34375 99.800781 197.0625 99.800781 C 183.050781 99.800781 171.308594 109.441406 168.28125 122.480469 C 165.0625 119.644531 160.707031 117.753906 155.972656 117.753906 C 145.75 117.753906 137.417969 126.070312 137.417969 136.277344 C 137.417969 137.222656 137.417969 137.976562 137.609375 138.921875 C 127.195312 141.949219 119.621094 151.398438 119.621094 162.738281 C 119.621094 176.34375 130.792969 187.496094 144.425781 187.496094 L 159.949219 187.496094 L 157.109375 204.503906 L 172.824219 191.273438 L 174.152344 187.496094 L 174.527344 187.496094 Z M 170.363281 158.957031 C 175.855469 146.105469 183.050781 134.765625 198.953125 131.550781 C 203.5 146.292969 198.765625 158.769531 189.109375 170.109375 C 190.433594 172.753906 191.570312 175.589844 191.191406 178.234375 C 190.625 181.824219 187.972656 183.527344 185.320312 185.792969 L 182.859375 187.875 L 176.613281 192.976562 L 176.613281 180.503906 L 173.582031 182.390625 L 167.902344 178.992188 L 167.902344 175.210938 L 156.730469 181.824219 L 158.8125 168.59375 C 159.382812 165.003906 159.570312 163.113281 162.980469 161.035156 C 165.441406 159.523438 168.089844 159.335938 170.742188 159.144531 Z M 170.363281 158.957031 " fill-opacity="1" fill-rule="evenodd"/></g><path fill="#d9d9d9" d="M 197.4375 134.765625 L 195.355469 138.167969 C 197.816406 146.484375 194.976562 156.121094 188.539062 166.707031 C 196.304688 157.066406 200.28125 146.859375 197.25 134.578125 Z M 197.4375 134.765625 " fill-opacity="1" fill-rule="evenodd"/><g fill="#8c52ff" fill-opacity="1"><g transform="translate(75.454343, 243.768265)"><g><path d="M 9.953125 -10.703125 C 13.542969 -10.226562 14.261719 -9.300781 14.261719 -7.761719 L 14.261719 -7.625 C 14.261719 -6.328125 13.339844 -5.128906 11.113281 -5.128906 L 10.773438 -5.128906 C 8.550781 -5.128906 7.523438 -6.292969 7.523438 -9.234375 L 1.027344 -9.234375 L 1.027344 -8.925781 C 1.027344 -2.222656 4.445312 0.480469 10.945312 0.480469 C 17.476562 0.480469 20.863281 -2.566406 20.863281 -7.796875 L 20.863281 -8.171875 C 20.863281 -13.40625 17.75 -15.253906 11.9375 -16.039062 C 8.34375 -16.519531 7.796875 -17.339844 7.796875 -18.980469 L 7.796875 -19.117188 C 7.796875 -20.484375 8.722656 -21.546875 10.601562 -21.546875 L 10.945312 -21.546875 C 13.339844 -21.546875 14.191406 -20.109375 14.191406 -17.101562 L 20.691406 -17.101562 L 20.691406 -17.816406 C 20.691406 -24.28125 17.679688 -27.15625 10.945312 -27.15625 C 4.515625 -27.15625 1.195312 -23.90625 1.195312 -18.945312 L 1.195312 -18.570312 C 1.195312 -13.339844 4.136719 -11.492188 9.953125 -10.703125 Z M 9.953125 -10.703125 "/></g></g></g><g fill="#8c52ff" fill-opacity="1"><g transform="translate(97.339336, 243.768265)"><g><path d="M 9.574219 0.480469 C 15.5625 0.480469 18.296875 -3.078125 18.296875 -8.378906 L 18.296875 -9.746094 C 18.296875 -15.046875 15.5625 -18.605469 9.574219 -18.605469 C 3.589844 -18.605469 0.855469 -15.046875 0.855469 -9.746094 L 0.855469 -8.378906 C 0.855469 -3.078125 3.589844 0.480469 9.574219 0.480469 Z M 9.574219 -4.925781 C 7.867188 -4.925781 7.113281 -6.15625 7.113281 -8.378906 L 7.113281 -9.746094 C 7.113281 -11.96875 7.867188 -13.203125 9.574219 -13.203125 C 11.285156 -13.203125 12.039062 -11.96875 12.039062 -9.746094 L 12.039062 -8.378906 C 12.039062 -6.15625 11.285156 -4.925781 9.574219 -4.925781 Z M 9.574219 -4.925781 "/></g></g></g><g fill="#8c52ff" fill-opacity="1"><g transform="translate(116.488711, 243.768265)"><g><path d="M 7.113281 -8.378906 L 7.113281 -9.746094 C 7.113281 -11.96875 7.695312 -13.203125 9.371094 -13.203125 C 10.601562 -13.203125 11.355469 -12.515625 11.355469 -10.945312 L 17.269531 -10.945312 L 17.269531 -11.765625 C 17.269531 -16.074219 14.5 -18.605469 9.234375 -18.605469 C 3.386719 -18.605469 0.855469 -15.046875 0.855469 -9.746094 L 0.855469 -8.378906 C 0.855469 -3.078125 3.386719 0.480469 9.234375 0.480469 C 14.5 0.480469 17.269531 -2.050781 17.269531 -6.019531 L 17.269531 -6.839844 L 11.355469 -6.839844 C 11.355469 -5.644531 10.601562 -4.925781 9.371094 -4.925781 C 7.695312 -4.925781 7.113281 -6.15625 7.113281 -8.378906 Z M 7.113281 -8.378906 "/></g></g></g><g fill="#8c52ff" fill-opacity="1"><g transform="translate(134.543836, 243.768265)"><g><path d="M 1.640625 0 L 7.933594 0 L 7.933594 -18.125 L 1.640625 -18.125 Z M 8.035156 -26.675781 L 1.539062 -26.675781 L 1.539062 -20.179688 L 8.035156 -20.179688 Z M 8.035156 -26.675781 "/></g></g></g><g fill="#8c52ff" fill-opacity="1"><g transform="translate(144.118523, 243.768265)"><g><path d="M 12.3125 0 L 17.988281 0 L 17.648438 -5.128906 L 17.648438 -11.628906 C 17.648438 -16.109375 15.765625 -18.605469 9.574219 -18.605469 C 3.421875 -18.605469 1.539062 -15.730469 1.539062 -12.449219 L 1.539062 -12.140625 L 7.457031 -12.140625 C 7.457031 -12.996094 7.867188 -13.886719 9.40625 -13.886719 C 10.773438 -13.886719 11.285156 -13.269531 11.355469 -11.96875 L 7.523438 -11.355469 C 3.488281 -10.738281 0.855469 -9.40625 0.855469 -5.472656 L 0.855469 -5.128906 C 0.855469 -2.222656 2.222656 0.480469 6.496094 0.480469 C 8.890625 0.480469 10.703125 -0.375 11.96875 -1.710938 Z M 8.890625 -4.582031 C 7.59375 -4.582031 7.113281 -5.335938 7.113281 -6.054688 L 7.113281 -6.257812 C 7.113281 -7.078125 7.421875 -7.730469 8.890625 -7.96875 L 11.355469 -8.34375 L 11.355469 -5.574219 C 10.839844 -5.097656 9.953125 -4.582031 8.890625 -4.582031 Z M 8.890625 -4.582031 "/></g></g></g><g fill="#8c52ff" fill-opacity="1"><g transform="translate(163.267898, 243.768265)"><g><path d="M 1.640625 0 L 7.933594 0 L 7.933594 -27.359375 L 1.640625 -27.359375 Z M 1.640625 0 "/></g></g></g><g fill="#8c52ff" fill-opacity="1"><g transform="translate(172.842585, 243.768265)"><g/></g></g><g fill="#d9d9d9" fill-opacity="1"><g transform="translate(179.680902, 243.768265)"><g><path d="M 14.707031 -26.675781 L 14.707031 -16.414062 L 8.207031 -16.414062 L 8.207031 -26.675781 L 1.710938 -26.675781 L 1.710938 0 L 8.207031 0 L 8.207031 -10.808594 L 14.707031 -10.808594 L 14.707031 0 L 21.203125 0 L 21.203125 -26.675781 Z M 14.707031 -26.675781 "/></g></g></g><g fill="#d9d9d9" fill-opacity="1"><g transform="translate(202.591755, 243.768265)"><g><path d="M 18.296875 -6.839844 L 18.296875 -9.574219 C 18.296875 -14.878906 15.5625 -18.605469 9.710938 -18.605469 C 3.863281 -18.605469 0.855469 -14.878906 0.855469 -9.574219 L 0.855469 -8.550781 C 0.855469 -3.25 3.726562 0.480469 9.917969 0.480469 C 15.183594 0.480469 18.296875 -2.050781 18.296875 -5.675781 L 18.296875 -5.8125 L 12.378906 -5.8125 C 12.378906 -4.960938 11.320312 -4.242188 9.953125 -4.242188 C 8.378906 -4.242188 7.351562 -4.789062 7.148438 -6.839844 Z M 9.574219 -13.886719 C 11.046875 -13.886719 11.832031 -13.203125 12.003906 -11.285156 L 7.148438 -11.285156 C 7.320312 -13.203125 8.105469 -13.886719 9.574219 -13.886719 Z M 9.574219 -13.886719 "/></g></g></g><g fill="#d9d9d9" fill-opacity="1"><g transform="translate(221.74113, 243.768265)"><g><path d="M 12.3125 0 L 17.988281 0 L 17.648438 -5.128906 L 17.648438 -11.628906 C 17.648438 -16.109375 15.765625 -18.605469 9.574219 -18.605469 C 3.421875 -18.605469 1.539062 -15.730469 1.539062 -12.449219 L 1.539062 -12.140625 L 7.457031 -12.140625 C 7.457031 -12.996094 7.867188 -13.886719 9.40625 -13.886719 C 10.773438 -13.886719 11.285156 -13.269531 11.355469 -11.96875 L 7.523438 -11.355469 C 3.488281 -10.738281 0.855469 -9.40625 0.855469 -5.472656 L 0.855469 -5.128906 C 0.855469 -2.222656 2.222656 0.480469 6.496094 0.480469 C 8.890625 0.480469 10.703125 -0.375 11.96875 -1.710938 Z M 8.890625 -4.582031 C 7.59375 -4.582031 7.113281 -5.335938 7.113281 -6.054688 L 7.113281 -6.257812 C 7.113281 -7.078125 7.421875 -7.730469 8.890625 -7.96875 L 11.355469 -8.34375 L 11.355469 -5.574219 C 10.839844 -5.097656 9.953125 -4.582031 8.890625 -4.582031 Z M 8.890625 -4.582031 "/></g></g></g><g fill="#d9d9d9" fill-opacity="1"><g transform="translate(240.890504, 243.768265)"><g><path d="M 5.128906 0 L 14.023438 0 L 18.980469 -18.125 L 12.484375 -18.125 L 9.574219 -4.960938 L 6.667969 -18.125 L 0.171875 -18.125 Z M 5.128906 0 "/></g></g></g><g fill="#d9d9d9" fill-opacity="1"><g transform="translate(260.039879, 243.768265)"><g><path d="M 18.296875 -6.839844 L 18.296875 -9.574219 C 18.296875 -14.878906 15.5625 -18.605469 9.710938 -18.605469 C 3.863281 -18.605469 0.855469 -14.878906 0.855469 -9.574219 L 0.855469 -8.550781 C 0.855469 -3.25 3.726562 0.480469 9.917969 0.480469 C 15.183594 0.480469 18.296875 -2.050781 18.296875 -5.675781 L 18.296875 -5.8125 L 12.378906 -5.8125 C 12.378906 -4.960938 11.320312 -4.242188 9.953125 -4.242188 C 8.378906 -4.242188 7.351562 -4.789062 7.148438 -6.839844 Z M 9.574219 -13.886719 C 11.046875 -13.886719 11.832031 -13.203125 12.003906 -11.285156 L 7.148438 -11.285156 C 7.320312 -13.203125 8.105469 -13.886719 9.574219 -13.886719 Z M 9.574219 -13.886719 "/></g></g></g><g fill="#d9d9d9" fill-opacity="1"><g transform="translate(279.189253, 243.768265)"><g><path d="M 18.84375 0 L 18.84375 -12.140625 C 18.84375 -15.390625 17.476562 -18.605469 13.203125 -18.605469 C 10.5 -18.605469 8.652344 -17.476562 7.457031 -15.867188 L 7.046875 -18.125 L 1.367188 -18.125 L 1.710938 -12.996094 L 1.710938 0 L 8.003906 0 L 8.003906 -11.800781 C 8.34375 -12.3125 9.269531 -13.203125 10.636719 -13.203125 C 12.347656 -13.203125 12.550781 -11.96875 12.550781 -11.113281 L 12.550781 0 Z M 18.84375 0 "/></g></g></g></svg>